# xmcd
#
# Track frame offsets:
#	150
#	13974
#	27492
#	40081
#	53477
#	68391
#	82173
#	95149
#	107179
#	120205
#	132666
#	145894
#	160155
#	171929
#	184063
#	196786
#	209358
#	221282
#	232923
#	246379
#	259710
#	273049
#	285052
#
# Disc length: 3948 seconds
#
# Revision: 1
# Processed by: cddbd v1.5.2PL0 Copyright (c) Steve Scherf et al.
# Submitted via: audiograbber 1.83.01
#
DISCID=400f6a17
DTITLE=Walter Davis - Complete Recorded Works - 1933-52 - Vol.7
DYEAR=1900
DGENRE=Blues
TTITLE0=New B and O Blues
TTITLE1=When You Need My Help
TTITLE2=Please, Remember Me
TTITLE3=Things Ain't What They Used to Be
TTITLE4=Oh ! Me, Oh ! My Blues
TTITLE5=Just One More Time
TTITLE6=It's Been So Long
TTITLE7=Move Back to the Woods
TTITLE8=You've Got to Reap What You Sow
TTITLE9=Wonder What I'm Doing Wrong
TTITLE10=I Would Hate to Hate You (Like I Love You)
TTITLE11=Santa Claus Blues
TTITLE12=Got to See Her Every Night
TTITLE13=So Long, Baby (326-A)
TTITLE14=Stop That Train in Harlem
TTITLE15=You Are the One I Love
TTITLE16=I Just Can't Help It
TTITLE17=Lonely Nights
TTITLE18=Good Morning, Baby
TTITLE19=You Make the World So Bright
TTITLE20=Tears Came Rolling Down
TTITLE21=So Long, Baby (E2VB-6866)
TTITLE22=What May Your Trouble Be
EXTD=
EXTT0=
EXTT1=
EXTT2=
EXTT3=
EXTT4=
EXTT5=
EXTT6=
EXTT7=
EXTT8=
EXTT9=
EXTT10=
EXTT11=
EXTT12=
EXTT13=
EXTT14=
EXTT15=
EXTT16=
EXTT17=
EXTT18=
EXTT19=
EXTT20=
EXTT21=
EXTT22=
PLAYORDER=
